<svg width="125" height="52" viewBox="0 0 125 52" fill="none" xmlns="http://www.w3.org/2000/svg">
<path d="M14.0128 50H111.013C114.909 50 117.924 48.572 119.913 46.2563C121.866 43.9825 122.684 41.0254 122.574 38.1731C122.384 33.2428 119.315 28.0114 113.629 26.7735C114.367 23.0646 113.269 19.5954 111.156 16.6784C108.624 13.1823 104.613 10.411 100.36 8.59774C96.1025 6.78266 91.3807 5.83217 87.2854 6.18716C84.6985 6.41139 82.1856 7.1872 80.2723 8.73974C79.068 6.84949 77.1111 5.43154 74.9636 4.43562C71.3885 2.77759 66.7669 2 62.2628 2C57.7587 2 53.1371 2.77759 49.562 4.43562C47.438 5.42065 45.5005 6.81853 44.2931 8.67789C42.4354 7.16313 39.98 6.40754 37.4604 6.18728C33.3942 5.83181 28.6716 6.78332 24.4159 8.59774C20.1653 10.41 16.1474 13.1832 13.6432 16.6891C11.5611 19.6039 10.5179 23.0641 11.3288 26.7518C8.74326 27.2562 6.63211 28.4904 5.07038 30.1965C3.02814 32.4275 2.02251 35.3567 2.00038 38.2346C1.97823 41.1131 2.93965 44.0555 4.98223 46.2994C7.05477 48.5763 10.1201 50 14.0128 50Z" stroke="#F1F1F1" stroke-width="4" stroke-miterlimit="1" stroke-linejoin="round"/>
<path d="M14.8663 37.348C14.8663 35.1833 15.4013 33.4886 16.4713 32.264C17.5475 31.0332 19.0906 30.4178 21.1007 30.4178C22.2758 30.4178 23.2469 30.6189 24.0138 31.0209C24.7807 31.4167 25.3312 31.961 25.6652 32.6537C25.8383 33.0124 25.8105 33.2598 25.5817 33.3959L24.8488 33.8226C24.6014 33.9649 24.3818 33.8474 24.1901 33.4701C23.986 33.0804 23.652 32.7155 23.1881 32.3754C22.7242 32.0352 22.0594 31.8651 21.1935 31.8651C19.6473 31.8651 18.5216 32.3475 17.8165 33.3124C17.1176 34.271 16.7682 35.6163 16.7682 37.348C16.7682 39.0798 17.1176 40.4281 17.8165 41.3929C18.5216 42.3516 19.6473 42.8309 21.1935 42.8309C22.0841 42.8309 22.7954 42.6268 23.3273 42.2186C23.8654 41.8104 24.255 41.3837 24.4962 40.9384C24.6879 40.5796 24.9106 40.4714 25.1642 40.6136L25.9342 41.0497C26.1569 41.1796 26.1754 41.427 25.9899 41.7919C25.625 42.5031 25.0312 43.0969 24.2086 43.5731C23.386 44.0432 22.3501 44.2782 21.1007 44.2782C19.0906 44.2782 17.5475 43.6659 16.4713 42.4413C15.4013 41.2105 14.8663 39.5127 14.8663 37.348ZM30.8445 43.9999C30.5662 43.9999 30.427 43.8607 30.427 43.5824V32.0043C30.427 31.8806 30.458 31.7631 30.5198 31.6517L31.1692 30.4735C31.2867 30.257 31.3826 30.1488 31.4568 30.1488H31.7815C31.9671 30.1488 32.0599 30.257 32.0599 30.4735V43.5824C32.0599 43.8607 31.9207 43.9999 31.6424 43.9999H30.8445ZM36.2558 39.1293C36.2558 37.6758 36.6393 36.476 37.4062 35.5297C38.1793 34.5772 39.3081 34.101 40.7924 34.101C42.2768 34.101 43.4025 34.5772 44.1694 35.5297C44.9425 36.476 45.3291 37.6758 45.3291 39.1293C45.3291 40.5827 44.9425 41.7857 44.1694 42.7382C43.4025 43.6845 42.2768 44.1576 40.7924 44.1576C39.3081 44.1576 38.1793 43.6845 37.4062 42.7382C36.6393 41.7857 36.2558 40.5827 36.2558 39.1293ZM37.9814 39.1293C37.9814 40.4281 38.2381 41.3899 38.7514 42.0145C39.2648 42.6392 39.9451 42.9515 40.7924 42.9515C41.6398 42.9515 42.3201 42.6392 42.8334 42.0145C43.3468 41.3899 43.6035 40.4281 43.6035 39.1293C43.6035 37.8304 43.3468 36.8687 42.8334 36.244C42.3201 35.6193 41.6398 35.307 40.7924 35.307C39.9451 35.307 39.2648 35.6193 38.7514 36.244C38.2381 36.8687 37.9814 37.8304 37.9814 39.1293ZM49.5065 40.6044V34.6761C49.5065 34.3978 49.6456 34.2587 49.9239 34.2587H50.7218C51.0001 34.2587 51.1393 34.3978 51.1393 34.6761V40.1591C51.1393 41.3713 51.3403 42.1413 51.7423 42.4691C52.1443 42.7907 52.6422 42.9515 53.2359 42.9515C54.0152 42.9515 54.6121 42.7134 55.0265 42.2372C55.4409 41.7548 55.6481 40.9322 55.6481 39.7694V34.6761C55.6481 34.3978 55.7872 34.2587 56.0655 34.2587H56.8634C57.1417 34.2587 57.2809 34.3978 57.2809 34.6761V43.5824C57.2809 43.8607 57.1417 43.9999 56.8634 43.9999H56.0841C55.8058 43.9999 55.6666 43.8607 55.6666 43.5824V42.8402H55.6295C55.2275 43.2855 54.7945 43.6164 54.3307 43.8329C53.8668 44.0494 53.3009 44.1576 52.6329 44.1576C51.5506 44.1576 50.7589 43.8422 50.2579 43.2113C49.7569 42.5743 49.5065 41.7053 49.5065 40.6044ZM61.4768 39.1293C61.4768 37.7995 61.7984 36.6306 62.4417 35.6224C63.0849 34.6081 64.025 34.101 65.262 34.101C65.9732 34.101 66.5423 34.2185 66.969 34.4535C67.3958 34.6885 67.7792 35.0101 68.1194 35.4183H68.138C68.1256 35.2328 68.1194 35.0441 68.1194 34.8524V30.724C68.1194 30.4457 68.2586 30.3065 68.5369 30.3065H69.3347C69.6131 30.3065 69.7522 30.4457 69.7522 30.724V43.5824C69.7522 43.8607 69.6131 43.9999 69.3347 43.9999H68.5554C68.3328 43.9999 68.2122 43.8607 68.1936 43.5824L68.138 42.8402H68.1194C67.7792 43.2484 67.3958 43.57 66.969 43.8051C66.5423 44.0401 65.9732 44.1576 65.262 44.1576C64.025 44.1576 63.0849 43.6535 62.4417 42.6454C61.7984 41.6311 61.4768 40.459 61.4768 39.1293ZM63.2024 39.1293C63.2024 40.2673 63.3972 41.1888 63.7869 41.8939C64.1827 42.599 64.8507 42.9515 65.7908 42.9515C66.4588 42.9515 67.0123 42.7258 67.4514 42.2743C67.8968 41.8166 68.1194 41.1239 68.1194 40.1962V38.0624C68.1194 37.1346 67.8968 36.445 67.4514 35.9935C67.0123 35.5358 66.4588 35.307 65.7908 35.307C64.8507 35.307 64.1827 35.6595 63.7869 36.3646C63.3972 37.0697 63.2024 37.9913 63.2024 39.1293ZM73.3637 47.618C73.0854 47.618 72.9462 47.5098 72.9462 47.2933V46.7367C72.9462 46.5202 73.0854 46.412 73.3637 46.412H83.1791C83.4575 46.412 83.5966 46.5202 83.5966 46.7367V47.2933C83.5966 47.5098 83.4575 47.618 83.1791 47.618H73.3637Z" fill="#F1F1F1"/>
</svg>
